<?xml version="1.0" standalone="no"?>
<!DOCTYPE svg PUBLIC "-//W3C//DTD SVG 20010904//EN"
 "http://www.w3.org/TR/2001/REC-SVG-20010904/DTD/svg10.dtd">
<svg version="1.0" xmlns="http://www.w3.org/2000/svg"
 width="690.000000pt" height="361.000000pt" viewBox="0 0 690.000000 361.000000"
 preserveAspectRatio="xMidYMid meet">

<g transform="translate(0.000000,361.000000) scale(0.100000,-0.100000)"
fill="#102F68" stroke="none">
<path d="M710 3338 c0 -2 -16 -49 -35 -103 -19 -55 -31 -101 -26 -105 19 -12
17 -37 -6 -68 l-25 -34 22 -30 c22 -29 22 -31 5 -76 -10 -26 -21 -51 -25 -57
-4 -5 -26 -55 -49 -110 -23 -55 -48 -113 -56 -130 -18 -39 -38 -84 -162 -370
-58 -132 -113 -259 -124 -282 -10 -23 -19 -46 -19 -51 0 -5 -7 -15 -15 -22
-13 -11 -15 -6 -16 36 l0 49 -34 -70 c-40 -80 -41 -92 -19 -124 14 -19 18 -59
22 -212 l5 -189 43 0 44 0 0 -61 c0 -45 -5 -67 -20 -86 l-20 -25 25 -42 c24
-41 25 -49 25 -225 0 -173 -1 -185 -26 -244 -14 -34 -35 -72 -46 -83 -13 -14
-16 -24 -9 -29 12 -7 -10 -49 -107 -212 -31 -53 -52 -99 -48 -108 5 -13 89
-15 706 -15 680 0 700 1 700 19 0 10 -36 80 -81 156 -53 89 -79 143 -76 156 3
11 -2 27 -12 37 -10 9 -29 46 -44 82 -24 59 -26 80 -30 235 l-4 170 30 53 30
53 -22 23 c-17 18 -21 35 -21 84 l0 62 44 0 43 0 8 193 c5 138 11 198 21 214
19 31 18 38 -20 118 l-34 70 -7 -48 -7 -48 -62 143 c-66 150 -78 178 -132 296
-19 40 -34 75 -34 78 0 3 -11 29 -24 58 -13 29 -68 153 -121 276 -101 233
-100 230 -64 281 9 12 6 21 -15 44 -28 30 -31 40 -16 50 16 10 11 45 -20 134
-26 74 -40 105 -40 89z m-69 -780 c-5 -40 -17 -131 -26 -203 -9 -71 -23 -175
-30 -230 -8 -55 -17 -127 -20 -160 -4 -33 -13 -103 -20 -155 -8 -52 -17 -126
-21 -165 -7 -68 -8 -69 -15 -30 -4 22 -8 70 -8 107 l-1 68 -137 -6 c-76 -3
-146 -7 -156 -9 -20 -4 -18 11 13 80 9 22 41 96 69 165 29 69 58 139 65 155 7
17 32 76 56 133 24 56 45 100 47 98 3 -2 -15 -60 -40 -128 -25 -68 -57 -157
-72 -198 -14 -41 -41 -117 -59 -167 -39 -107 -43 -102 71 -79 37 8 85 17 106
20 31 6 37 11 37 32 0 14 6 53 14 87 8 34 22 103 31 152 19 103 36 196 64 340
10 55 22 117 26 139 11 68 17 30 6 -46z m163 -10 c24 -115 73 -372 107 -558
12 -69 23 -126 24 -127 2 -4 208 -43 224 -43 18 0 13 19 -39 160 -23 63 -45
126 -50 140 -5 14 -25 70 -45 125 -46 128 -51 143 -37 130 6 -5 38 -77 73
-160 34 -82 86 -208 115 -279 30 -71 55 -136 56 -144 3 -16 -67 -18 -224 -6
l-76 6 -8 -103 -8 -104 -16 115 c-10 63 -23 160 -29 215 -25 203 -30 244 -55
435 -15 107 -29 212 -32 233 -12 66 4 39 20 -35z m174 -143 c-3 -3 -9 2 -12
12 -6 14 -5 15 5 6 7 -7 10 -15 7 -18z m-233 -346 l27 -81 -21 -42 -22 -42 41
-99 c79 -192 128 -310 144 -347 18 -42 13 -45 -31 -23 -32 16 -36 24 -78 131
-51 132 -57 149 -73 187 -18 44 -20 42 -51 -38 -12 -33 -29 -76 -36 -95 -8
-19 -25 -64 -39 -100 -20 -53 -31 -69 -60 -84 -40 -21 -53 -18 -37 11 6 10 34
74 62 143 28 69 59 143 69 165 9 22 27 65 40 97 l23 56 -22 35 c-11 19 -21 40
-21 47 0 13 51 160 55 160 2 0 15 -36 30 -81z m-376 -444 c29 -53 64 -109 78
-125 l25 -30 -41 0 -41 0 -38 76 -39 77 -28 -107 -28 -106 -35 0 -35 0 21 23
c20 21 36 65 78 220 10 37 21 67 25 67 3 0 29 -43 58 -95z m771 47 c0 -34 64
-219 81 -235 26 -24 24 -27 -14 -27 -37 0 -37 1 -78 164 l-12 49 -39 -77 -38
-76 -42 0 -42 0 26 28 c14 15 43 59 64 97 72 133 67 127 82 108 6 -9 12 -23
12 -31z m-347 -232 c36 -16 69 -30 74 -30 4 0 18 -8 31 -18 21 -16 23 -24 20
-97 l-3 -80 -34 33 -34 33 23 25 c23 23 23 24 3 24 -11 0 -24 10 -30 23 -34
74 -218 75 -251 2 -7 -16 -20 -25 -33 -25 -21 0 -21 -1 -6 -18 10 -10 17 -25
17 -33 0 -14 -43 -59 -55 -59 -3 0 -5 36 -5 81 l0 80 93 44 c50 24 100 44 109
45 9 0 46 -13 81 -30z m-396 -26 c40 -30 43 -54 7 -54 -33 0 -64 -17 -64 -35
0 -7 -7 -20 -15 -29 -12 -12 -13 -20 -3 -40 10 -23 8 -29 -12 -51 -13 -13 -27
-22 -31 -19 -5 3 -9 50 -9 104 l0 99 43 24 c23 14 44 25 46 26 2 1 19 -10 38
-25z m710 5 l43 -21 0 -109 c0 -107 0 -109 -20 -97 -23 14 -27 67 -8 86 9 9 8
12 -5 12 -9 0 -17 6 -17 13 0 25 -40 57 -70 57 -17 0 -30 5 -30 12 0 10 49 67
59 68 3 0 24 -9 48 -21z m-461 -223 c11 -16 14 -62 14 -207 0 -160 -2 -188
-16 -200 -14 -12 -20 -9 -41 15 l-24 29 3 209 c3 196 4 211 23 224 19 14 20
13 23 -17 2 -18 10 -42 18 -53z m195 47 c5 -13 9 -112 9 -219 0 -185 -1 -196
-22 -224 -20 -28 -23 -29 -40 -13 -16 14 -18 35 -18 195 0 136 4 187 15 215 8
19 15 46 15 59 0 30 28 22 41 -13z m199 -41 c0 -5 -5 -13 -11 -19 -8 -8 -7
-24 5 -59 12 -35 16 -84 16 -184 0 -131 -1 -137 -24 -159 l-23 -22 -17 35
c-23 49 -24 380 0 414 12 18 19 20 35 12 10 -6 19 -14 19 -18z m-590 -1 c6
-12 10 -95 10 -200 0 -159 -2 -184 -19 -212 l-19 -31 -25 28 c-26 28 -26 29
-20 158 3 72 11 150 19 173 9 29 11 50 4 67 -5 13 -6 27 -3 30 13 13 43 5 53
-13z m110 -180 c0 -172 -2 -190 -17 -194 -16 -4 -15 -6 3 -12 19 -6 61 -62 52
-70 -1 -1 -22 -6 -45 -10 l-43 -7 0 225 c0 222 0 225 23 240 12 9 23 16 25 16
1 1 2 -84 2 -188z m358 -65 l-3 -221 -40 3 c-22 2 -41 5 -43 6 -8 9 31 62 55
72 26 11 26 12 6 13 l-23 1 0 190 0 190 25 -16 25 -17 -2 -221z m-588 44 c0
-93 0 -173 -1 -176 -1 -7 52 -77 65 -86 17 -12 4 -16 -73 -24 l-73 -7 7 24 c4
13 18 33 32 45 24 21 24 21 4 27 -20 5 -21 11 -21 166 0 148 2 163 20 181 11
11 25 20 30 20 6 0 10 -63 10 -170z m820 -25 c0 -160 -2 -175 -17 -175 -14 0
-11 -5 9 -17 22 -14 44 -60 33 -71 -9 -9 -135 12 -135 22 1 6 14 27 30 46 l30
34 0 141 c0 77 3 157 6 177 6 33 9 36 25 27 17 -9 19 -24 19 -184z m-115 -284
l40 -18 -116 5 -117 5 -59 -42 c-32 -22 -63 -41 -68 -41 -5 0 -36 19 -68 41
l-59 42 -109 -5 c-60 -3 -109 -4 -109 -1 0 2 15 10 33 18 25 11 92 14 312 14
247 0 285 -3 320 -18z m-335 -139 c15 -11 25 -6 76 38 88 76 99 71 141 -60 18
-58 42 -132 52 -165 11 -33 18 -62 16 -65 -2 -3 -124 -4 -273 -2 l-269 3 18
62 c9 34 31 106 48 161 17 54 31 100 31 103 0 2 10 7 23 12 18 7 31 1 70 -33
27 -22 57 -47 67 -54z"/>
<path d="M4420 2854 c-164 -21 -281 -67 -359 -143 -84 -82 -118 -179 -108
-308 7 -92 34 -149 101 -217 85 -85 174 -119 401 -157 310 -52 435 -138 435
-299 0 -110 -63 -203 -171 -252 -20 -9 -74 -22 -119 -29 -166 -24 -324 22
-413 121 -46 51 -97 160 -97 205 0 24 -3 25 -60 25 l-60 0 -1 -182 c-1 -101
-3 -199 -4 -218 -2 -56 2 -60 65 -60 42 0 59 4 64 15 12 33 55 37 140 14 241
-63 454 -65 623 -5 105 37 216 134 260 226 87 182 64 372 -61 507 -96 104
-251 178 -436 208 -234 37 -291 55 -343 104 -42 38 -57 74 -57 134 0 132 129
205 348 195 206 -10 324 -91 378 -260 l18 -58 58 0 58 0 -2 208 -3 207 -61 3
c-50 2 -63 -1 -79 -18 -14 -15 -30 -20 -72 -20 -30 0 -63 4 -73 10 -52 28
-281 55 -370 44z"/>
<path d="M1587 2833 c-4 -3 -7 -28 -7 -53 l0 -48 45 -11 c51 -13 91 -51 105
-101 6 -21 10 -243 10 -543 0 -483 -1 -510 -19 -546 -23 -43 -55 -68 -97 -73
-28 -3 -29 -5 -32 -60 l-3 -58 301 0 301 0 -3 57 c-3 49 -6 58 -23 61 -54 8
-67 15 -95 54 l-30 41 0 234 0 233 183 0 c100 0 199 -4 220 -9 52 -12 74 -39
101 -123 4 -14 17 -18 61 -18 l55 0 0 210 0 210 -60 0 c-58 0 -60 -1 -60 -25
0 -14 -6 -41 -14 -59 -23 -55 -73 -66 -298 -66 l-188 0 0 290 0 290 170 0 c93
0 193 -5 222 -11 121 -26 208 -118 224 -238 l7 -51 58 0 59 0 -2 208 -3 207
-591 3 c-325 1 -594 -1 -597 -5z"/>
<path d="M3037 2833 c-3 -5 -8 -28 -12 -53 -3 -25 -8 -52 -11 -61 -3 -12 9
-19 51 -28 65 -15 117 -55 143 -110 15 -32 17 -83 17 -486 0 -476 -1 -483 -48
-545 -29 -38 -64 -57 -119 -64 -47 -7 -50 -8 -44 -31 4 -14 9 -45 13 -70 l6
-45 338 0 c186 0 340 4 343 8 2 4 8 35 11 69 l7 61 -50 7 c-68 9 -120 54 -147
126 -19 51 -20 79 -20 484 0 418 1 431 21 475 35 74 101 120 172 120 24 0 24
1 18 61 -4 33 -10 67 -13 75 -4 12 -58 14 -338 14 -184 0 -336 -3 -338 -7z"/>
<path d="M5444 2825 c-4 -8 -3 -35 0 -59 6 -40 10 -44 49 -56 51 -15 83 -48
97 -100 7 -26 10 -210 8 -542 -3 -456 -5 -506 -20 -538 -21 -41 -49 -61 -98
-69 -35 -6 -35 -7 -38 -64 l-3 -57 306 0 306 0 -3 57 -3 58 -39 6 c-48 8 -90
50 -105 106 -6 21 -11 87 -11 146 l0 108 102 139 c56 77 104 140 107 140 3 0
30 -51 60 -113 29 -61 89 -184 132 -271 44 -87 79 -171 79 -186 0 -36 -32 -63
-83 -69 l-42 -6 -3 -57 -3 -58 331 0 330 0 0 54 c0 57 -7 66 -55 66 -37 0
-104 85 -173 221 -34 68 -92 180 -128 249 -36 69 -99 192 -141 273 l-76 148
24 27 c49 55 147 159 229 244 73 75 91 88 128 94 l42 7 0 58 0 59 -153 0 c-85
0 -188 -3 -230 -6 l-77 -7 0 -52 c0 -50 1 -53 30 -58 38 -8 70 -40 70 -71 0
-16 -29 -60 -81 -123 -95 -116 -260 -317 -343 -417 -32 -39 -62 -72 -67 -74
-5 -2 -9 116 -9 272 0 347 9 380 114 408 l46 12 0 51 0 52 -202 6 c-327 11
-398 9 -404 -8z"/>
<path d="M5175 1105 c-5 -2 -23 -6 -38 -10 -37 -8 -77 -51 -77 -82 0 -36 50
-81 100 -89 22 -4 51 -15 63 -25 22 -19 22 -19 2 -35 -22 -17 -106 -14 -130 6
-10 9 -16 6 -24 -9 -6 -11 -11 -24 -11 -29 0 -18 52 -32 116 -32 77 0 119 23
129 71 12 54 -20 83 -123 109 -24 6 -46 18 -49 26 -14 38 55 58 112 32 28 -13
30 -12 39 19 6 18 2 25 -16 32 -31 12 -81 20 -93 16z"/>
<path d="M1590 993 c0 -88 4 -113 18 -136 31 -46 53 -56 117 -57 109 0 135 38
135 195 l0 105 -30 0 -30 0 0 -84 c0 -99 -13 -144 -47 -157 -31 -12 -71 -2
-83 21 -6 10 -10 64 -10 119 l0 101 -35 0 -35 0 0 -107z"/>
<path d="M2204 1087 c-2 -7 -3 -74 -2 -148 l3 -134 32 -3 32 -3 3 90 3 90 74
-89 c61 -75 78 -90 102 -90 l29 0 0 151 0 150 -32 -3 -33 -3 -5 -89 -5 -88
-31 43 c-64 88 -115 139 -140 139 -14 0 -27 -6 -30 -13z"/>
<path d="M2847 1093 c-3 -5 -6 -72 -6 -150 l-2 -143 36 0 35 0 0 150 0 150
-29 0 c-17 0 -32 -3 -34 -7z"/>
<path d="M3270 1033 c107 -252 93 -228 134 -228 l38 0 54 130 c30 72 59 138
65 148 9 16 6 18 -27 15 -37 -3 -38 -4 -79 -100 -22 -54 -44 -100 -48 -104 -3
-4 -11 6 -18 22 -6 16 -17 43 -24 59 -7 17 -21 51 -32 77 -17 45 -20 48 -55
48 l-37 0 29 -67z"/>
<path d="M3890 950 l0 -150 115 0 115 0 0 30 0 30 -80 0 -80 0 0 30 0 30 65 0
65 0 0 30 0 30 -65 0 -65 0 0 35 0 35 81 0 c78 0 80 1 77 23 -3 21 -7 22 -115
25 l-113 3 0 -151z"/>
<path d="M4470 950 l0 -150 35 0 c34 0 35 1 35 40 0 36 3 40 25 40 14 0 28 1
32 3 4 1 20 -17 36 -40 24 -37 33 -43 63 -43 19 0 34 3 34 6 0 3 -14 23 -30
44 l-30 38 30 30 c23 23 30 39 30 69 0 80 -53 113 -180 113 l-80 0 0 -150z
m175 80 c22 -18 19 -67 -4 -80 -11 -5 -38 -10 -60 -10 l-41 0 0 56 0 57 45 -5
c25 -3 52 -11 60 -18z"/>
<path d="M5650 950 l0 -150 35 0 35 0 0 150 0 150 -35 0 -35 0 0 -150z"/>
<path d="M6030 1076 c0 -23 5 -25 48 -28 l47 -3 3 -122 3 -123 34 0 35 0 0
125 0 125 45 0 c41 0 45 2 45 25 l0 25 -130 0 -130 0 0 -24z"/>
<path d="M6593 1093 c2 -5 27 -47 55 -94 46 -77 52 -93 52 -143 l0 -56 35 0
35 0 0 53 c0 42 6 63 31 103 39 60 79 131 79 138 0 3 -13 6 -30 6 -25 0 -34
-8 -67 -65 -21 -35 -40 -65 -43 -65 -3 0 -22 30 -43 65 -35 60 -40 65 -73 65
-19 0 -33 -3 -31 -7z"/>
<path d="M1650 643 c0 -4 18 -37 40 -75 23 -37 55 -94 73 -125 18 -32 48 -86
67 -120 l35 -63 2387 0 2387 0 89 158 c49 86 99 174 112 194 l22 38 -2606 0
c-1433 0 -2606 -3 -2606 -7z m1380 -127 c0 -10 -13 -16 -37 -18 -50 -4 -55
-26 -6 -30 46 -4 47 -21 2 -28 -49 -8 -49 -30 0 -30 30 0 41 -4 41 -15 0 -12
-13 -15 -55 -15 l-55 0 0 75 0 75 55 0 c41 0 55 -4 55 -14z m148 8 c12 -4 22
-13 22 -21 0 -11 -8 -12 -35 -7 -47 9 -48 -17 -1 -34 39 -14 51 -35 35 -63 -8
-16 -19 -19 -57 -17 -34 2 -47 7 -47 18 0 11 9 14 38 12 45 -4 51 16 6 25 -19
4 -35 15 -42 31 -10 21 -8 27 12 43 25 20 34 22 69 13z m200 -11 c2 -8 -6 -13
-22 -13 -25 0 -26 -2 -26 -60 0 -53 -2 -60 -20 -60 -18 0 -20 7 -20 60 0 53
-2 60 -20 60 -11 0 -20 7 -20 15 0 13 11 15 62 13 38 -2 63 -8 66 -15z m143
-41 c38 -73 41 -92 18 -92 -10 0 -19 7 -19 15 0 10 -10 15 -34 15 -21 0 -36
-6 -40 -15 -6 -17 -36 -21 -36 -4 0 25 61 140 73 137 6 -3 24 -27 38 -56z
m194 46 c20 -9 25 -18 23 -43 -1 -17 2 -36 6 -43 4 -6 2 -21 -4 -32 -9 -17
-21 -20 -70 -20 l-60 0 0 68 c0 38 3 72 7 75 10 11 70 8 98 -5z m125 -48 l0
-60 40 0 c29 0 40 -4 40 -15 0 -12 -13 -15 -55 -15 l-55 0 0 68 c0 38 3 72 7
75 17 17 23 2 23 -53z m170 -15 c0 -60 -3 -75 -15 -75 -12 0 -15 15 -15 75 0
60 3 75 15 75 12 0 15 -15 15 -75z m161 64 c27 -14 14 -30 -20 -23 -46 10 -47
-14 -1 -32 37 -15 41 -20 38 -47 -4 -36 -34 -49 -86 -35 -47 13 -35 33 16 29
47 -3 57 13 15 24 -38 9 -53 23 -53 51 0 38 49 56 91 33z m117 -22 c3 -22 8
-27 32 -27 24 0 29 5 32 28 2 16 9 27 18 27 12 0 16 -16 18 -72 3 -68 1 -73
-18 -73 -16 0 -20 6 -20 30 0 27 -3 30 -30 30 -27 0 -30 -3 -30 -30 0 -23 -4
-30 -20 -30 -18 0 -20 7 -20 68 0 38 3 72 7 76 13 12 28 -1 31 -27z m290 16
c2 -9 -9 -13 -37 -13 -30 0 -41 -4 -41 -15 0 -10 11 -15 35 -15 24 0 35 -5 35
-15 0 -10 -11 -15 -35 -15 -24 0 -35 -5 -35 -15 0 -11 11 -15 40 -15 29 0 40
-4 40 -15 0 -12 -13 -15 -60 -15 l-60 0 0 68 c0 38 3 72 7 76 12 12 106 2 111
-11z m161 6 c53 -19 68 -77 31 -117 -17 -17 -32 -22 -75 -22 l-55 0 0 68 c0
38 3 72 7 75 10 11 56 8 92 -4z m281 -49 c0 -45 4 -62 15 -66 30 -12 14 -24
-30 -24 -44 0 -60 12 -30 24 9 3 15 18 15 40 0 26 -4 34 -14 30 -26 -10 -30
18 -5 37 41 32 49 25 49 -41z m169 50 c14 -7 18 -22 19 -70 1 -56 -1 -62 -24
-70 -47 -18 -96 20 -74 59 5 10 6 28 3 39 -10 42 33 66 76 42z m171 1 c0 -5
-7 -14 -16 -21 -13 -12 -12 -16 12 -35 22 -17 26 -27 20 -49 -10 -42 -75 -56
-98 -22 -15 22 -7 61 18 98 24 34 64 52 64 29z m160 1 c0 -4 -5 -13 -12 -20
-9 -9 -7 -17 11 -36 29 -30 25 -67 -9 -83 -76 -36 -108 51 -44 120 24 26 54
36 54 19z"/>
<path d="M3475 460 c-8 -13 -1 -24 14 -19 6 3 7 10 2 18 -6 10 -10 10 -16 1z"/>
<path d="M3650 485 c0 -9 9 -15 25 -15 16 0 25 6 25 15 0 9 -9 15 -25 15 -16
0 -25 -6 -25 -15z"/>
<path d="M3650 426 c0 -11 10 -16 31 -16 38 0 35 24 -4 28 -19 2 -27 -1 -27
-12z"/>
<path d="M4680 455 c0 -43 1 -45 30 -45 51 0 63 65 14 84 -36 14 -44 7 -44
-39z"/>
<path d="M5142 488 c5 -15 28 -18 29 -3 0 6 -7 12 -17 13 -10 3 -15 -1 -12
-10z"/>
<path d="M5142 423 c2 -10 10 -18 18 -18 8 0 16 8 18 18 2 12 -3 17 -18 17
-15 0 -20 -5 -18 -17z"/>
<path d="M5313 443 c-21 -7 -15 -33 7 -33 11 0 20 6 20 14 0 18 -11 25 -27 19z"/>
<path d="M5473 443 c-18 -6 -16 -30 2 -37 9 -3 18 1 22 10 7 18 -7 33 -24 27z"/>
</g>
</svg>
